<svg xmlns="http://www.w3.org/2000/svg" width="110" height="49" fill="none"><path fill="#fff" fill-rule="evenodd" d="M83.095 18.832c-.362-2.289-1.676-3.45-4.175-3.45h-7.2c-2.497 0-3.811 1.161-4.174 3.45a7.048 7.048 0 0 0-.066.83v13.64h4.504V21.23c0-.931.325-1.303 1.202-1.303h4.276c.788 0 1.197.372 1.197 1.303v12.073h4.504V19.662a7.27 7.27 0 0 0-.067-.83zm-22.091 14.47h4.503V15.381h-4.503v17.921zm-8.259-24.4h-4.504v24.414h4.504V19.941h4.315v-4.546h-4.315V8.902zM41.8 33.302h4.503V8.89H41.8v24.414zm-30.56-12.08c0-.96-.502-1.294-1.183-1.294H5.784c-.857 0-1.282.39-1.282 1.26v7.56h5.538c.788 0 1.2-.5 1.2-1.294v-6.232zm4.438-2.124c.034.233.067.498.067.73v8.961c0 .964-.197 1.726-.591 2.39-.857 1.527-1.875 2.124-3.518 2.124l-11.627.005L0 8.888h4.502v6.493h7.2c.295 0 .59.033.854.1 1.709.365 2.892 1.692 3.122 3.617zm13.217 8.356c0 .931-.324 1.302-1.202 1.302h-4.276c-.787 0-1.196-.37-1.196-1.302V15.38h-4.504v13.641c0 .266.034.563.067.83.361 2.289 1.675 3.45 4.175 3.45h7.2c2.498 0 3.812-1.161 4.175-3.45.033-.267.066-.564.066-.83v-13.64h-4.505v12.072zm6.476 5.88h4.504V15.41H35.37v17.922z" clip-rule="evenodd"/><mask id="a" width="48" height="49" x="62" y="0" maskUnits="userSpaceOnUse"><path fill="#fff" fill-rule="evenodd" d="M62.1.148v8.687h3.022v-5.6h41.612v42.567H65.122v-5.684H62.1v8.77h47.658V.149H62.099z" clip-rule="evenodd"/></mask><g mask="url(#a)"><path fill="url(#b)" fill-rule="evenodd" d="M62.1.148v8.687h3.022v-5.6h41.612v42.567H65.122v-5.684H62.1v8.77h47.658V.149H62.099z" clip-rule="evenodd"/></g><defs><linearGradient id="b" x1="62.099" x2="109.757" y1="48.889" y2="48.889" gradientUnits="userSpaceOnUse"><stop stop-color="#4FE2C1"/><stop offset="1" stop-color="#234FDA"/></linearGradient></defs></svg>