<svg xmlns="http://www.w3.org/2000/svg" width="177" height="19" fill="none"><path fill="#fff" d="M6.028 12.948c0 1.48.25 2.613.748 3.4.514.788 1.43 1.182 2.748 1.182 1.319 0 2.331-.41 3.039-1.23.707-.82 1.06-2.066 1.06-3.737v-10.9h-1.567v-.457h3.52v.458h-1.325v10.73c0 1.993-.443 3.48-1.327 4.46-.884.981-2.451 1.472-4.702 1.472-2.234 0-3.946-.467-5.136-1.399-1.173-.932-1.76-2.532-1.76-4.798V1.664H0v-.458h7.595v.458H6.028v11.284zm9.979-6.341h5.811v2.218c.257-.74.651-1.334 1.182-1.784.53-.45 1.334-.675 2.411-.675 2.492 0 3.737 1.342 3.737 4.027v7.257h1.35v.434h-6.823v-.434h.988V9.814c0-.965-.064-1.584-.192-1.857-.129-.29-.362-.434-.7-.434-.514 0-.972.338-1.374 1.013-.386.675-.579 1.495-.579 2.46v6.654h1.037v.434h-6.848v-.434h1.326V7.04h-1.326v-.433zm18.355-1.664c-.852 0-1.463-.217-1.833-.651-.353-.434-.53-.973-.53-1.616 0-.643.193-1.173.578-1.59.402-.419 1.005-.628 1.809-.628s1.414.193 1.832.579c.418.37.627.908.627 1.615 0 .692-.2 1.246-.602 1.664-.402.418-1.03.627-1.881.627zM30.72 6.607h5.907V17.65h1.35v.434h-7.16v-.434h1.325V7.04H30.72v-.433zm8.956 8.029V7.041H38.35v-.434h1.326v-3.11l4.485-1.11v4.22h3.134v.434h-3.134v8.126c0 .755.072 1.31.217 1.664.16.353.482.53.964.53s.9-.241 1.254-.723c.37-.483.61-1.142.723-1.978l.41.049c-.128 1.109-.482 1.993-1.06 2.652-.58.643-1.536.965-2.87.965s-2.355-.266-3.062-.796c-.708-.53-1.061-1.495-1.061-2.894zm14.625 3.69c-2.073 0-3.633-.531-4.678-1.592-1.028-1.077-1.543-2.564-1.543-4.46 0-1.914.579-3.376 1.736-4.39 1.174-1.012 2.66-1.518 4.461-1.518 3.65 0 5.401 1.832 5.257 5.497h-6.8v.94c0 1.576.2 2.766.603 3.57.402.803 1.1 1.205 2.098 1.205 1.864 0 3.086-.997 3.665-2.99l.434.072c-.306 1.158-.86 2.058-1.664 2.701-.788.643-1.977.965-3.569.965zm-1.543-6.945h2.484V10.2c0-1.302-.08-2.187-.241-2.653-.145-.482-.45-.723-.917-.723-.45 0-.787.257-1.013.771-.208.499-.313 1.367-.313 2.605v1.181zm12.529 1.712c0 1.688.089 2.813.266 3.376.177.546.498.82.964.82.483 0 .892-.21 1.23-.627.354-.418.53-1.037.53-1.857V9.55c0-.692-.136-1.278-.41-1.76-.273-.483-.675-.724-1.205-.724s-.892.354-1.085 1.06c-.193.708-.29 1.946-.29 3.714v1.254zm3.304 4.991-.265-1.688c-.547 1.287-1.656 1.93-3.328 1.93-1.382 0-2.46-.499-3.23-1.495-.756-.997-1.134-2.484-1.134-4.461 0-4.003 1.591-6.004 4.774-6.004 1.415 0 2.347.394 2.797 1.181V.434h-1.47V0h6.027v17.65h1.182v.434H68.59zm20.292-4.87 2.002-6.945-1.447-4.605h-1.374v-.458h7.475v.458h-1.423l3.593 11.405 2.893-11.405h-2.435v-.458h4.822v.458h-1.591l-4.437 16.662h-2.146l-3.569-10.9-3.134 10.9h-2.098L79.938 1.664h-1.134v-.458h7.837v.458h-1.688l3.93 11.55zm18.894 5.112c-2.073 0-3.633-.531-4.678-1.592-1.028-1.077-1.543-2.564-1.543-4.46 0-1.914.579-3.376 1.736-4.39 1.174-1.012 2.661-1.518 4.461-1.518 3.649 0 5.401 1.832 5.257 5.497h-6.8v.94c0 1.576.201 2.766.603 3.57.402.803 1.101 1.205 2.098 1.205 1.864 0 3.086-.997 3.665-2.99l.434.072c-.306 1.158-.86 2.058-1.664 2.701-.788.643-1.977.965-3.569.965zm-1.543-6.945h2.484V10.2c0-1.302-.081-2.187-.241-2.653-.145-.482-.451-.723-.917-.723-.45 0-.787.257-1.012.771-.209.499-.314 1.367-.314 2.605v1.181zm27.062-10.175.241 6.052h-.458c-.708-2.138-1.334-3.593-1.881-4.364-.547-.788-1.334-1.182-2.363-1.182h-.289v15.866h2.049v.506h-8.801v-.506h2.05V1.712h-.314c-1.029 0-1.824.41-2.387 1.23-.563.803-1.181 2.242-1.857 4.316h-.458l.241-6.052h14.227zm6.27 17.12c-2.074 0-3.633-.531-4.678-1.592-1.028-1.077-1.543-2.564-1.543-4.46 0-1.914.579-3.376 1.736-4.39 1.174-1.012 2.661-1.518 4.461-1.518 3.649 0 5.401 1.832 5.257 5.497h-6.8v.94c0 1.576.201 2.766.603 3.57.402.803 1.101 1.205 2.097 1.205 1.865 0 3.087-.997 3.666-2.99l.434.072c-.306 1.158-.86 2.058-1.664 2.701-.788.643-1.977.965-3.569.965zm-1.543-6.945h2.484V10.2c0-1.302-.081-2.187-.242-2.653-.144-.482-.45-.723-.916-.723-.45 0-.788.257-1.013.771-.209.499-.313 1.367-.313 2.605v1.181zM152.409 6.8c-.707 0-1.214.386-1.519 1.157-.305.772-.458 2.05-.458 3.834v1.254c0 1.591.177 2.733.53 3.424.354.691 1.005 1.037 1.953 1.037.949 0 1.704-.322 2.267-.965a4.635 4.635 0 0 0 1.085-2.194l.434.048c-.305 1.383-.868 2.38-1.688 2.99-.836.627-1.985.94-3.448.94-1.865 0-3.295-.498-4.292-1.494-.997-1.013-1.495-2.484-1.495-4.413 0-1.945.563-3.44 1.688-4.485 1.141-1.045 2.725-1.567 4.75-1.567 1.431 0 2.524.281 3.279.844.756.546 1.134 1.237 1.134 2.073 0 .836-.185 1.447-.555 1.833-.354.386-.852.579-1.495.579-.627 0-1.133-.17-1.519-.507-.386-.337-.579-.836-.579-1.495 0-.29.041-.578.121-.868h.796a2.67 2.67 0 0 0 .168-.868c0-.771-.385-1.157-1.157-1.157zm4.669-6.8h5.811v8.825c.257-.74.651-1.334 1.182-1.784.53-.45 1.334-.675 2.411-.675 2.492 0 3.737 1.342 3.737 4.027v7.257h1.351v.434h-6.824v-.434h.988V9.814c0-.965-.064-1.584-.193-1.857-.128-.29-.361-.434-.699-.434-.514 0-.972.338-1.374 1.013-.386.675-.579 1.495-.579 2.46v6.654h1.037v.434h-6.848v-.434h1.326V.434h-1.326V0zm17.776 18.326c-.691 0-1.214-.201-1.567-.603-.338-.418-.507-.917-.507-1.495 0-.595.177-1.093.531-1.495.37-.402.884-.603 1.543-.603.659 0 1.181.169 1.567.506.386.338.579.844.579 1.52 0 .675-.185 1.205-.555 1.59-.353.387-.884.58-1.591.58z"/></svg>